<?xml version="1.0" encoding="utf-8"?>
<!-- Generator: Adobe Illustrator 19.2.1, SVG Export Plug-In . SVG Version: 6.00 Build 0)  -->
<svg version="1.1" id="Calque_1" xmlns="http://www.w3.org/2000/svg" xmlns:xlink="http://www.w3.org/1999/xlink" x="0px" y="0px"
	 width="11.2px" height="11.4px" viewBox="0 0 11.2 11.4" style="enable-background:new 0 0 11.2 11.4;" xml:space="preserve">
<style type="text/css">
	.st0{fill:#36363C;}
</style>
<path class="st0" d="M9.7,1.2H8.2V0h-1v1.2H4V0H3v1.2H1.5C0.7,1.2,0,1.9,0,2.7v7.2c0,0.8,0.7,1.5,1.5,1.5h8.2c0.8,0,1.5-0.7,1.5-1.5
	V2.7C11.2,1.9,10.6,1.2,9.7,1.2z M1.5,2.2H3v1.2h1V2.2h3.2v1.2h1V2.2h1.5c0.3,0,0.5,0.2,0.5,0.5v1.5H1V2.7C1,2.4,1.2,2.2,1.5,2.2z
	 M9.7,10.4H1.5C1.2,10.4,1,10.2,1,9.9V5.2h9.2v4.7C10.2,10.2,10,10.4,9.7,10.4z"/>
</svg>
