<?xml version="1.0" encoding="utf-8"?>
<!-- Generator: Adobe Illustrator 19.2.1, SVG Export Plug-In . SVG Version: 6.00 Build 0)  -->
<svg version="1.1" id="Calque_1" xmlns="http://www.w3.org/2000/svg" xmlns:xlink="http://www.w3.org/1999/xlink" x="0px" y="0px"
	 width="12.5px" height="19.3px" viewBox="0 0 12.5 19.3" style="enable-background:new 0 0 12.5 19.3;" xml:space="preserve">
<style type="text/css">
	.st0{fill:#36363C;}
</style>
<path class="st0" d="M12.5,8.2L11.1,2c-0.3-1.2-1.3-2-2.6-2H4C2.8,0,1.7,0.8,1.5,2L0,8.2c-0.1,0.6,0,1.2,0.4,1.6
	c0.4,0.5,0.9,0.7,1.5,0.7h0.9l-1.9,7.6c-0.1,0.3,0,0.6,0.2,0.8c0.2,0.2,0.5,0.4,0.8,0.4h0.5c0.4,0,0.8-0.3,0.9-0.7l0.6-2.2l2.5-1.9
	l2.4,1.8l0.6,2.3c0.1,0.4,0.5,0.7,0.9,0.7h0.5c0.3,0,0.6-0.1,0.7-0.4c0.2-0.2,0.2-0.5,0.2-0.8l-1.9-7.6h0.9c0.6,0,1.1-0.3,1.5-0.7
	C12.5,9.3,12.6,8.7,12.5,8.2z M2.5,2.3C2.6,1.5,3.3,1,4,1h4.5c0.7,0,1.4,0.5,1.6,1.2l1.3,5.5H1.2L2.5,2.3z M7.2,10.5l0.4,1.7l-1.3,1
	l-1.4-1.1l0.4-1.6H7.2z M2.4,18.3H1.9l1.9-7.8h0.4L2.4,18.3z M4.2,14.8l0.4-1.6l0.8,0.6L4.2,14.8z M7.1,13.8l0.8-0.6l0.4,1.4
	L7.1,13.8z M10.6,18.3h-0.4l-1.9-7.8h0.4L10.6,18.3z M10.6,9.5H9.4l0,0H7l0,0H1.9c-0.3,0-0.5-0.1-0.7-0.3C1.1,9,1.1,8.9,1,8.8h10.4
	c0,0.1-0.1,0.2-0.2,0.3C11.2,9.4,10.9,9.5,10.6,9.5z"/>
</svg>
