<?xml version="1.0" encoding="utf-8"?>
<!-- Generator: Adobe Illustrator 19.2.1, SVG Export Plug-In . SVG Version: 6.00 Build 0)  -->
<svg version="1.1" id="Calque_1" xmlns="http://www.w3.org/2000/svg" xmlns:xlink="http://www.w3.org/1999/xlink" x="0px" y="0px"
	 width="14.1px" height="11.8px" viewBox="0 0 14.1 11.8" style="enable-background:new 0 0 14.1 11.8;" xml:space="preserve">
<style type="text/css">
	.st0{fill:#FF0217;}
</style>
<g>
	<path class="st0" d="M12,1c-0.2-0.6-0.8-1-1.4-1C10,0,9.4,0.4,9.2,1H0V2h9.2c0.2,0.6,0.8,1,1.4,1c0.6,0,1.2-0.4,1.4-1h2.1V1H12z"/>
	<path class="st0" d="M4.6,4.4c-0.6,0-1.2,0.4-1.4,1H0v1.1h3.2c0.2,0.6,0.8,1,1.4,1c0.6,0,1.2-0.4,1.4-1h8.1V5.4H6
		C5.8,4.8,5.3,4.4,4.6,4.4z"/>
	<path class="st0" d="M8.6,8.8c-0.6,0-1.2,0.4-1.4,1H0v1.1h7.2c0.2,0.6,0.8,1,1.4,1c0.6,0,1.2-0.4,1.4-1h4.1V9.8H10
		C9.8,9.2,9.3,8.8,8.6,8.8z"/>
</g>
</svg>
