<?xml version="1.0" encoding="utf-8"?>
<!-- Generator: Adobe Illustrator 19.2.1, SVG Export Plug-In . SVG Version: 6.00 Build 0)  -->
<svg version="1.1" id="Calque_1" xmlns="http://www.w3.org/2000/svg" xmlns:xlink="http://www.w3.org/1999/xlink" x="0px" y="0px"
	 width="12.4px" height="12.6px" viewBox="0 0 12.4 12.6" style="enable-background:new 0 0 12.4 12.6;" xml:space="preserve">
<style type="text/css">
	.st0{fill:#36363C;}
</style>
<g>
	<path class="st0" d="M5.5,12.6L0,7.1l6.6-6.6L12.4,0l-0.2,5.9L5.5,12.6z M1.4,7.1l4.1,4.1l5.7-5.7l0.2-4.4L7.1,1.4L1.4,7.1z
		 M11.7,5.7L11.7,5.7L11.7,5.7z"/>
</g>
<g>
	<path class="st0" d="M9.3,4.5C9,4.5,8.7,4.4,8.4,4.1c-0.5-0.5-0.5-1.3,0-1.8c0.5-0.5,1.3-0.5,1.8,0c0.5,0.5,0.5,1.3,0,1.8h0
		C10,4.4,9.7,4.5,9.3,4.5z M9.9,3.8L9.9,3.8L9.9,3.8z M9.3,2.9C9.3,2.9,9.2,3,9.1,3C9,3.1,9,3.3,9.1,3.4s0.3,0.1,0.4,0
		s0.1-0.3,0-0.4C9.5,3,9.4,2.9,9.3,2.9z"/>
</g>
<g>
	<g>
		<path class="st0" d="M6.4,8.2l0,0.7c-0.5,0-1.1-0.2-1.5-0.6C4.3,7.7,4.2,6.8,4.5,6.1L4.1,5.7l0.3-0.3l0.3,0.3c0,0,0.1-0.1,0.1-0.1
			C4.9,5.6,5,5.5,5,5.5L4.7,5.2L5,4.9l0.4,0.4c0.7-0.3,1.5-0.2,2.2,0.4c0.4,0.4,0.6,0.9,0.6,1.4L7.4,7.2c0-0.4-0.1-0.8-0.3-1
			C6.7,5.9,6.4,5.8,6,5.9l0.8,0.8L6.6,7L5.6,6.1c-0.1,0-0.1,0.1-0.2,0.1C5.4,6.3,5.4,6.3,5.3,6.4l0.9,0.9L6,7.6L5.2,6.7
			c-0.1,0.4,0,0.8,0.3,1C5.7,8,6,8.1,6.4,8.2z"/>
	</g>
</g>
</svg>
