<?xml version="1.0" encoding="utf-8"?>
<!-- Generator: Adobe Illustrator 19.2.1, SVG Export Plug-In . SVG Version: 6.00 Build 0)  -->
<svg version="1.1" id="Calque_1" xmlns="http://www.w3.org/2000/svg" xmlns:xlink="http://www.w3.org/1999/xlink" x="0px" y="0px"
	 width="12.5px" height="17.1px" viewBox="0 0 12.5 17.1" style="enable-background:new 0 0 12.5 17.1;" xml:space="preserve">
<style type="text/css">
	.st0{fill:#36363C;}
</style>
<g>
	<path class="st0" d="M10.4,6.7h-0.3V3.8C10.1,1.7,8.4,0,6.3,0S2.5,1.7,2.5,3.8v2.8H2.1C1,6.7,0,7.6,0,8.8v6.1c0,1.2,1,2.1,2.1,2.1
		h8.2c1.2,0,2.1-1,2.1-2.1V8.8C12.5,7.6,11.6,6.7,10.4,6.7z M3.5,3.8C3.5,2.3,4.7,1,6.3,1c1.5,0,2.8,1.3,2.8,2.8v2.8H3.5V3.8z
		 M11.5,14.9c0,0.6-0.5,1.1-1.1,1.1H2.1c-0.6,0-1.1-0.5-1.1-1.1V8.8c0-0.6,0.5-1.1,1.1-1.1h8.2c0.6,0,1.1,0.5,1.1,1.1V14.9z"/>
	<path class="st0" d="M7.9,10.8c0-0.8-0.7-1.5-1.5-1.5s-1.5,0.7-1.5,1.5c0,0.4,0.1,0.7,0.3,1L4.5,14h3.7l-0.7-2.3
		C7.8,11.5,7.9,11.1,7.9,10.8z M6.9,13h-1l0.5-1.6L6,11.2c-0.1-0.1-0.2-0.3-0.2-0.4c0-0.3,0.2-0.5,0.5-0.5s0.5,0.2,0.5,0.5
		c0,0.2-0.1,0.3-0.2,0.4l-0.3,0.2L6.9,13z"/>
</g>
</svg>
