<?xml version="1.0" encoding="utf-8"?>
<!-- Generator: Adobe Illustrator 19.2.1, SVG Export Plug-In . SVG Version: 6.00 Build 0)  -->
<svg version="1.1" id="Calque_1" xmlns="http://www.w3.org/2000/svg" xmlns:xlink="http://www.w3.org/1999/xlink" x="0px" y="0px"
	 width="16.7px" height="17.9px" viewBox="0 0 16.7 17.9" style="enable-background:new 0 0 16.7 17.9;" xml:space="preserve">
<style type="text/css">
	.st0{fill:#36363C;}
</style>
<g>
	<path class="st0" d="M6.2,8.7H5.3v0.6H6c0,0.1,0,0.2,0,0.3c0,0.1,0,0.2,0,0.3H5.3v0.6h0.8c0.4,1.2,1.5,2,2.9,2c0.8,0,1.8-0.4,2.4-1
		l-0.8-0.9c-0.4,0.4-1,0.7-1.4,0.7c-0.6,0-1.1-0.3-1.3-0.7h1.8V9.9H7.5c0-0.1,0-0.2,0-0.3c0-0.1,0-0.2,0-0.3h2.1V8.7H7.8
		C8,8.2,8.5,7.9,9.1,7.9c0.5,0,1.1,0.3,1.4,0.7l0.8-1c-0.6-0.6-1.4-1-2.3-1C7.7,6.7,6.6,7.5,6.2,8.7z"/>
	<path class="st0" d="M14.6,9.6c0,3.5-2.8,6.3-6.3,6.3c-3.5,0-6.3-2.8-6.3-6.3c0-2.1,1-4,2.7-5.1L4.4,5.5l2,0.8l1.7-4.5L3.5,0L2.8,2
		L4,2.4C1.6,3.9,0,6.6,0,9.6c0,4.6,3.8,8.4,8.4,8.4c4.6,0,8.4-3.8,8.4-8.4H14.6z"/>
</g>
</svg>
