<?xml version="1.0" encoding="utf-8"?>
<!-- Generator: Adobe Illustrator 19.2.1, SVG Export Plug-In . SVG Version: 6.00 Build 0)  -->
<svg version="1.1" id="Calque_1" xmlns="http://www.w3.org/2000/svg" xmlns:xlink="http://www.w3.org/1999/xlink" x="0px" y="0px"
	 width="20.4px" height="9.8px" viewBox="0 0 20.4 9.8" style="enable-background:new 0 0 20.4 9.8;" xml:space="preserve">
<style type="text/css">
	.st0{fill:#36363C;}
</style>
<g>
	<path class="st0" d="M19,0H8.6C7.8,0,7.1,0.6,7.1,1.4v3H0.5C0.2,4.4,0,4.6,0,4.9s0.2,0.5,0.5,0.5h6.6v1.1C7.1,6.3,6.9,6.2,6.7,6.2
		H4.3C4,6.2,3.8,6.4,3.8,6.7S4,7.2,4.3,7.2h2.4c0.2,0,0.4-0.1,0.5-0.3v1.5c0,0.8,0.6,1.4,1.4,1.4H19c0.8,0,1.4-0.6,1.4-1.4v-7
		C20.4,0.6,19.8,0,19,0z M19.4,8.4c0,0.2-0.2,0.4-0.4,0.4H8.6c-0.2,0-0.4-0.2-0.4-0.4v-3h0.7c0.3,0,0.5-0.2,0.5-0.5S9.1,4.4,8.8,4.4
		H8.1v-3C8.1,1.2,8.3,1,8.6,1H19c0.2,0,0.4,0.2,0.4,0.4V8.4z"/>
	<path class="st0" d="M16.5,4.5l2.4-1.9c0.2-0.2,0.3-0.5,0.1-0.7c-0.2-0.2-0.5-0.3-0.7-0.1l-4,3.1c-0.3,0.1-0.6,0.1-0.9,0l-4-3.1
		C9.1,1.7,8.8,1.8,8.6,2C8.5,2.2,8.5,2.5,8.7,2.7l2.3,1.8L8.7,6.6c-0.2,0.2-0.2,0.5,0,0.7C8.8,7.4,8.9,7.5,9,7.5
		c0.1,0,0.2,0,0.3-0.1l2.5-2.2l0.9,0.7l0.1,0.1c0.3,0.1,0.6,0.2,0.9,0.2s0.6-0.1,0.9-0.2l1-0.8l2.6,2.3c0.1,0.1,0.2,0.1,0.3,0.1
		c0.1,0,0.3-0.1,0.4-0.2c0.2-0.2,0.2-0.5,0-0.7L16.5,4.5z"/>
	<path class="st0" d="M2.5,3.6h3.6c0.3,0,0.5-0.2,0.5-0.5S6.3,2.6,6.1,2.6H2.5C2.2,2.6,2,2.9,2,3.1S2.2,3.6,2.5,3.6z"/>
</g>
</svg>
