<?xml version="1.0" encoding="utf-8"?>
<!-- Generator: Adobe Illustrator 19.2.1, SVG Export Plug-In . SVG Version: 6.00 Build 0)  -->
<svg version="1.1" id="Calque_1" xmlns="http://www.w3.org/2000/svg" xmlns:xlink="http://www.w3.org/1999/xlink" x="0px" y="0px"
	 width="13.1px" height="13.1px" viewBox="0 0 13.1 13.1" style="enable-background:new 0 0 13.1 13.1;" xml:space="preserve">
<style type="text/css">
	.st0{fill:#36363C;}
</style>
<path class="st0" d="M12.3,0.8c-1.1-1.1-2.9-1.1-4,0L0.8,8.4L0,13.1l4.8-0.8l7.6-7.6C13.4,3.7,13.4,1.9,12.3,0.8z M11.4,1.8
	c0.3,0.3,0.4,0.7,0.4,1c0,0.4-0.1,0.7-0.4,1L9.3,1.7C9.9,1.2,10.8,1.2,11.4,1.8z M2.3,8.7l6.1-6.1l2.1,2.1l-6.1,6.1L2.3,8.7z
	 M1.8,10.1l1.2,1.2l-1.5,0.2L1.8,10.1z"/>
</svg>
