<?xml version="1.0" encoding="utf-8"?>
<!-- Generator: Adobe Illustrator 19.2.1, SVG Export Plug-In . SVG Version: 6.00 Build 0)  -->
<svg version="1.1" id="Calque_1" xmlns="http://www.w3.org/2000/svg" xmlns:xlink="http://www.w3.org/1999/xlink" x="0px" y="0px"
	 width="9.8px" height="15.7px" viewBox="0 0 9.8 15.7" style="enable-background:new 0 0 9.8 15.7;" xml:space="preserve">
<style type="text/css">
	.st0{fill:#22232B;}
</style>
<g>
	<path class="st0" d="M4.9,12.3l0.9-0.9c2.3-2.3,4-4,4-6.5C9.8,2.2,7.6,0,4.9,0C2.2,0,0,2.2,0,4.9c0,2.5,1.7,4.2,4,6.5L4.9,12.3z
		 M4.9,1.6c1.8,0,3.3,1.5,3.3,3.3C8.2,6.7,7,8,4.9,10.1C2.8,8,1.6,6.7,1.6,4.9C1.6,3.1,3.1,1.6,4.9,1.6z"/>
	<path class="st0" d="M8.5,11.1l-0.8,1.4C8.1,12.8,8.2,13,8.2,13c0,0.3-1.1,1-3.3,1c-2.2,0-3.3-0.8-3.3-1c0-0.1,0.1-0.3,0.5-0.5
		l-0.8-1.4C0.2,11.8,0,12.6,0,13c0,1.7,2.5,2.6,4.9,2.6c2.4,0,4.9-0.9,4.9-2.6C9.8,12.6,9.6,11.8,8.5,11.1z"/>
</g>
</svg>
