<?xml version="1.0" encoding="utf-8"?>
<!-- Generator: Adobe Illustrator 19.2.1, SVG Export Plug-In . SVG Version: 6.00 Build 0)  -->
<svg version="1.1" id="Calque_1" xmlns="http://www.w3.org/2000/svg" xmlns:xlink="http://www.w3.org/1999/xlink" x="0px" y="0px"
	 width="16px" height="16px" viewBox="0 0 16 16" style="enable-background:new 0 0 16 16;" xml:space="preserve">
<style type="text/css">
	.st0{fill:#FFFFFF;}
</style>
<g>
	<path class="st0" d="M13.7,2.3l-1.4,1.4C13.4,4.9,14,6.4,14,8c0,3.3-2.7,6-6,6c-3.3,0-6-2.7-6-6c0-1.6,0.6-3,1.7-4.2L2.2,2.4
		C0.8,3.9,0,5.9,0,8c0,4.4,3.6,8,8,8c4.4,0,8-3.6,8-8C16,5.9,15.2,3.9,13.7,2.3z"/>
	<rect x="7" class="st0" width="2" height="8"/>
</g>
</svg>
