<?xml version="1.0" encoding="utf-8"?>
<!-- Generator: Adobe Illustrator 19.2.1, SVG Export Plug-In . SVG Version: 6.00 Build 0)  -->
<svg version="1.1" id="Calque_1" xmlns="http://www.w3.org/2000/svg" xmlns:xlink="http://www.w3.org/1999/xlink" x="0px" y="0px"
	 width="13.7px" height="14px" viewBox="0 0 13.7 14" style="enable-background:new 0 0 13.7 14;" xml:space="preserve">
<style type="text/css">
	.st0{fill:#FFFFFF;}
</style>
<path class="st0" d="M13.7,12.6l-2.9-2.9c0.8-1,1.2-2.3,1.2-3.6c0-3.3-2.7-6-6-6C2.7,0,0,2.7,0,6c0,3.3,2.7,6,6,6
	c1.2,0,2.4-0.4,3.3-1l2.9,2.9L13.7,12.6z M2,6c0-2.2,1.8-4,4-4c2.2,0,4,1.8,4,4c0,2.2-1.8,4-4,4C3.8,10.1,2,8.2,2,6z"/>
</svg>
