<?xml version="1.0" encoding="utf-8"?>
<!-- Generator: Adobe Illustrator 19.2.1, SVG Export Plug-In . SVG Version: 6.00 Build 0)  -->
<svg version="1.1" id="Calque_1" xmlns="http://www.w3.org/2000/svg" xmlns:xlink="http://www.w3.org/1999/xlink" x="0px" y="0px"
	 width="15.5px" height="15.8px" viewBox="0 0 15.5 15.8" style="enable-background:new 0 0 15.5 15.8;" xml:space="preserve">
<style type="text/css">
	.st0{fill:#36363C;}
</style>
<path class="st0" d="M14.2,2.1h1.3V0h-1.2H1.2H0v2.1h1.3C1.8,4,3.2,6,4.5,7.5c0.2,0.2,0.2,0.6,0,0.8c-1.8,2.2-2.8,4-3.2,5.3H0v2.1
	h1.2h13.2h1.2v-2.1h-1.3c-0.3-0.9-1.1-2.5-3.3-5.3c-0.2-0.3-0.2-0.6,0-0.8C12.7,5.3,13.8,3.5,14.2,2.1z M9.2,9.6
	c1.4,1.8,2.3,3.2,2.7,4.1H3.5c0.4-0.9,1.2-2.3,2.6-4c0.8-1,0.8-2.5,0-3.5c-1.3-1.5-2.2-3-2.6-4h8.5C11.6,3,10.7,4.4,9.3,6.2
	C8.4,7.2,8.4,8.6,9.2,9.6z"/>
</svg>
