<?xml version="1.0" encoding="utf-8"?>
<!-- Generator: Adobe Illustrator 19.2.1, SVG Export Plug-In . SVG Version: 6.00 Build 0)  -->
<svg version="1.1" id="Calque_1" xmlns="http://www.w3.org/2000/svg" xmlns:xlink="http://www.w3.org/1999/xlink" x="0px" y="0px"
	 width="11.8px" height="15.1px" viewBox="0 0 11.8 15.1" style="enable-background:new 0 0 11.8 15.1;" xml:space="preserve">
<style type="text/css">
	.st0{fill:#36363C;}
</style>
<g>
	<path class="st0" d="M11.8,2.6h-1.1H8.5C8.5,1.2,7.3,0,5.9,0C4.4,0,3.3,1.2,3.3,2.6H1.1H0v1.3h1.1v9.7c0,0.8,0.7,1.5,1.5,1.5h6.6
		c0.8,0,1.5-0.7,1.5-1.5V3.9h1.1V2.6z M5.9,1.3c0.7,0,1.3,0.6,1.3,1.3H4.6C4.6,1.9,5.2,1.3,5.9,1.3z M9.4,13.6
		c0,0.1-0.1,0.2-0.2,0.2H2.6c-0.1,0-0.2-0.1-0.2-0.2V3.9h7V13.6z"/>
	<rect x="3.8" y="6.2" class="st0" width="1.3" height="5.2"/>
	<rect x="6.6" y="6.2" class="st0" width="1.3" height="5.2"/>
</g>
</svg>
